<?xml version="1.0" standalone="no"?><!DOCTYPE svg PUBLIC "-//W3C//DTD SVG 1.1//EN" "http://www.w3.org/Graphics/SVG/1.1/DTD/svg11.dtd"><svg t="1697611127625" class="icon" viewBox="0 0 1024 1024" version="1.1" xmlns="http://www.w3.org/2000/svg" p-id="1569" xmlns:xlink="http://www.w3.org/1999/xlink" width="16" height="16"><path d="M787.2 187.733333h-42.666667V121.6c0-8.533333-6.4-14.933333-14.933333-14.933333H640c-8.533333 0-14.933333 6.4-14.933333 14.933333v66.133333H398.933333V121.6c0-8.533333-6.4-14.933333-14.933333-14.933333h-87.466667c-8.533333 0-14.933333 6.4-14.933333 14.933333v66.133333h-42.666667C189.866667 187.733333 149.333333 228.266667 149.333333 277.333333v550.4c0 49.066667 40.533333 89.6 89.6 89.6H789.333333c49.066667 0 89.6-40.533333 89.6-89.6V277.333333c-2.133333-49.066667-42.666667-89.6-91.733333-89.6z m38.4 640c0 21.333333-17.066667 38.4-38.4 38.4H236.8c-21.333333 0-38.4-17.066667-38.4-38.4V277.333333c0-21.333333 17.066667-38.4 38.4-38.4h550.4c21.333333 0 38.4 17.066667 38.4 38.4v550.4z" p-id="1570" fill="#adb3c4"></path><path d="M512 552.533333c66.133333 0 119.466667-53.333333 119.466667-119.466666 0-66.133333-53.333333-119.466667-119.466667-119.466667s-119.466667 53.333333-119.466667 119.466667c0 66.133333 53.333333 119.466667 119.466667 119.466666z m0 59.733334c-81.066667 0-238.933333 38.4-238.933333 119.466666v59.733334h475.733333v-59.733334c2.133333-81.066667-155.733333-119.466667-236.8-119.466666z" p-id="1571" fill="#adb3c4"></path></svg>
