<?xml version="1.0" standalone="no"?><!DOCTYPE svg PUBLIC "-//W3C//DTD SVG 1.1//EN" "http://www.w3.org/Graphics/SVG/1.1/DTD/svg11.dtd"><svg t="1693901832572" class="icon" viewBox="0 0 1024 1024" version="1.1" xmlns="http://www.w3.org/2000/svg" p-id="5200" xmlns:xlink="http://www.w3.org/1999/xlink" width="16" height="16"><path d="M938.666667 853.333333a85.333333 85.333333 0 0 1-85.333334 85.333334H170.666667a85.333333 85.333333 0 0 1-85.333334-85.333334V170.666667a85.333333 85.333333 0 0 1 85.333334-85.333334h682.666666a85.333333 85.333333 0 0 1 85.333334 85.333334v682.666666z" fill="#fff" fill-opacity=".2" p-id="5201"></path><path d="M170.666667 853.333333V170.666667h682.666666v682.666666H170.666667z m682.666666 85.333334a85.333333 85.333333 0 0 0 85.333334-85.333334V170.666667a85.333333 85.333333 0 0 0-85.333334-85.333334H170.666667a85.333333 85.333333 0 0 0-85.333334 85.333334v682.666666a85.333333 85.333333 0 0 0 85.333334 85.333334h682.666666z" fill="#fff" p-id="5202"></path><path d="M384 320a64 64 0 1 1-128 0 64 64 0 0 1 128 0zM768 320a64 64 0 1 1-128 0 64 64 0 0 1 128 0zM384 704a64 64 0 1 1-128 0 64 64 0 0 1 128 0zM768 704a64 64 0 1 1-128 0 64 64 0 0 1 128 0z" fill="#fff" p-id="5203"></path><path d="M341.333333 298.666667v426.666666H298.666667V298.666667h42.666666z" fill="#fff" p-id="5204"></path><path d="M734.165333 320L320 734.165333l-30.165333-30.165333L704 289.834667l30.165333 30.165333z" fill="#fff" p-id="5205"></path><path d="M725.333333 298.666667v426.666666h-42.666666V298.666667h42.666666z" fill="#fff" p-id="5206"></path></svg>
