<svg xmlns="http://www.w3.org/2000/svg" xmlns:xlink="http://www.w3.org/1999/xlink" fill="none" version="1.1" width="36" height="41.837890625" viewBox="0 0 36 41.837890625"><defs><clipPath id="master_svg0_844_2942/844_2908"><rect x="12.134042739868164" y="19.416458129882812" width="12.019092559814453" height="1.5024638175964355" rx="0"/></clipPath><clipPath id="master_svg1_844_2942/844_2907"><rect x="13.845090389251709" y="24.0307674407959" width="8.329058647155762" height="1.4997185468673706" rx="0"/></clipPath><clipPath id="master_svg2_844_2942/844_2914"><rect x="13.70835816860199" y="28.454910278320312" width="8.671503067016602" height="1.4997124671936035" rx="0"/></clipPath><clipPath id="master_svg3_844_2942/844_2919"><rect x="13.353400230407715" y="33.29229736328125" width="9.668418884277344" height="1.4997140169143677" rx="0"/></clipPath><clipPath id="master_svg4_844_2942/844_2915"><rect x="13.588587284088135" y="37.650856018066406" width="9.668418884277344" height="1.4997140169143677" rx="0"/></clipPath></defs><g style="mix-blend-mode:passthrough"><g style="mix-blend-mode:passthrough"><g style="mix-blend-mode:passthrough"><path d="M15.361314973630906,20.016979770629884L13.833804973630905,19.909486770629883L12.632125347630906,37.18788677062989L14.159634973630904,37.29538677062988L15.361314973630906,20.016979770629884ZM20.593374973630905,20.016979770629884L22.120884973630908,19.909486770629883L23.322524973630905,37.18788677062989L21.795054973630904,37.29538677062988L20.593374973630905,20.016979770629884Z" fill-rule="evenodd" fill="#0b92d1" fill-opacity="1"/></g><g style="mix-blend-mode:passthrough" clip-path="url(#master_svg0_844_2942/844_2908)"><rect x="12.134042739868164" y="19.416458129882812" width="12.019092559814453" height="1.5024638175964355" rx="0" fill="#0b92d1" fill-opacity="1"/></g><g style="mix-blend-mode:passthrough" transform="matrix(0.8370333909988403,-0.5471518039703369,0.5421286821365356,0.8402954339981079,-10.771480851357353,11.413189467436155)" clip-path="url(#master_svg1_844_2942/844_2907)"><rect x="13.845090389251709" y="24.0307674407959" width="8.329058647155762" height="1.4997185468673706" rx="0" fill="#0b92d1" fill-opacity="1"/></g><g style="mix-blend-mode:passthrough" transform="matrix(0.8370335698127747,-0.5471515655517578,0.5421287417411804,0.8402954339981079,-13.192222511079017,12.04492872971673)" clip-path="url(#master_svg2_844_2942/844_2914)"><rect x="13.70835816860199" y="28.454910278320312" width="8.671503067016602" height="1.4997124671936035" rx="0" fill="#0b92d1" fill-opacity="1"/></g><g style="mix-blend-mode:passthrough" transform="matrix(0.8370335698127747,-0.547151505947113,0.5421287417411804,0.8402953743934631,-15.872555312818065,12.623266931566434)" clip-path="url(#master_svg3_844_2942/844_2919)"><rect x="13.353400230407715" y="33.29229736328125" width="9.668418884277344" height="1.4997140169143677" rx="0" fill="#0b92d1" fill-opacity="1"/></g><g style="mix-blend-mode:passthrough" transform="matrix(0.8370335698127747,-0.547151505947113,0.5421287417411804,0.8402953743934631,-18.197127637577324,13.448031860313534)" clip-path="url(#master_svg4_844_2942/844_2915)"><rect x="13.588587284088135" y="37.650856018066406" width="9.668418884277344" height="1.4997140169143677" rx="0" fill="#0b92d1" fill-opacity="1"/></g><g style="mix-blend-mode:passthrough"><path d="M18.047909677200316,8.205764770507812L22.473319677200315,12.915414770507812L21.052659677200317,12.915414770507812L21.052659677200317,14.138624770507812L21.052659677200317,18.068144770507814L19.21533967720032,18.068144770507814L19.21533967720032,14.716504770507813L16.842149677200318,14.716504770507813L16.842149677200318,18.068144770507814L15.004829677200318,18.068144770507814L15.004829677200318,12.915414770507812L13.622492909400318,12.915414770507812L18.047909677200316,8.205764770507812Z" fill-rule="evenodd" fill="#0b92d1" fill-opacity="1"/></g></g><g style="mix-blend-mode:passthrough"><path d="M18,0L36,10.4595L36,31.3784L18,41.8378L0.00000286102,31.3784L0.00000238419,10.4595L18,0ZM18.0574,2.81226L33.7204,11.9137L33.7204,30.1166L18.0574,39.2181L2.39445,30.1166L2.39445,11.9137L18.0574,2.81226ZM33.7224,12.8673L35.9807,12.8673L35.9807,15.564L33.7224,15.564L33.7224,12.8673ZM33.7224,26.3124L35.9807,26.3124L35.9807,29.0091L33.7224,29.0091L33.7224,26.3124Z" fill-rule="evenodd" fill="#0b92d1" fill-opacity="1"/></g></g></svg>
