<?xml version="1.0" standalone="no"?><!DOCTYPE svg PUBLIC "-//W3C//DTD SVG 1.1//EN" "http://www.w3.org/Graphics/SVG/1.1/DTD/svg11.dtd"><svg t="1716862658991" class="icon" viewBox="0 0 1024 1024" version="1.1" xmlns="http://www.w3.org/2000/svg" p-id="6702" xmlns:xlink="http://www.w3.org/1999/xlink" width="48" height="48"><path d="M103.421446 451.990025C46.44389 451.990025 0 405.546135 0 348.568579V103.421446C0 46.44389 46.44389 0 103.421446 0h245.147133c56.977556 0 103.421446 46.44389 103.421446 103.421446v245.147133c0 56.977556-46.44389 103.421446-103.421446 103.421446H103.421446z m0-408.578554c-33.037406 0-60.009975 26.972569-60.009975 60.009975v245.147133c0 33.037406 26.972569 60.009975 60.009975 60.009975h245.147133c33.037406 0 60.009975-26.972569 60.009975-60.009975V103.421446c0-33.037406-26.972569-60.009975-60.009975-60.009975H103.421446zM103.421446 1024C46.44389 1024 0 977.55611 0 920.578554V675.431421c0-56.977556 46.44389-103.421446 103.421446-103.421446h245.147133c56.977556 0 103.421446 46.44389 103.421446 103.421446v245.147133c0 56.977556-46.44389 103.421446-103.421446 103.421446H103.421446z m0-408.578554c-33.037406 0-60.009975 26.972569-60.009975 60.009975v245.147133c0 33.037406 26.972569 60.009975 60.009975 60.009975h245.147133c33.037406 0 60.009975-26.972569 60.009975-60.009975V675.431421c0-33.037406-26.972569-60.009975-60.009975-60.009975H103.421446zM675.431421 1024c-56.977556 0-103.421446-46.44389-103.421446-103.421446v-81.715711c0-56.977556 46.44389-103.421446 103.421446-103.421446h245.147133c56.977556 0 103.421446 46.44389 103.421446 103.421446v81.715711c0 56.977556-46.44389 103.421446-103.421446 103.421446H675.431421z m0-245.147132c-33.037406 0-60.009975 26.972569-60.009975 60.009975v81.715711c0 33.037406 26.972569 60.009975 60.009975 60.009975h245.147133c33.037406 0 60.009975-26.972569 60.009975-60.009975v-81.715711c0-33.037406-26.972569-60.009975-60.009975-60.009975H675.431421zM675.431421 615.421446c-56.977556 0-103.421446-46.44389-103.421446-103.421446v-408.578554c0-56.977556 46.44389-103.421446 103.421446-103.421446h245.147133c56.977556 0 103.421446 46.44389 103.421446 103.421446v408.578554c0 56.977556-46.44389 103.421446-103.421446 103.421446H675.431421z m0-572.009975c-33.037406 0-60.009975 26.972569-60.009975 60.009975v408.578554c0 33.037406 26.972569 60.009975 60.009975 60.009975h245.147133c33.037406 0 60.009975-26.972569 60.009975-60.009975v-408.578554c0-33.037406-26.972569-60.009975-60.009975-60.009975H675.431421z" fill="#adb3c4" p-id="6703"></path></svg>
