<?xml version="1.0" standalone="no"?><!DOCTYPE svg PUBLIC "-//W3C//DTD SVG 1.1//EN" "http://www.w3.org/Graphics/SVG/1.1/DTD/svg11.dtd"><svg t="1715133617377" class="icon" viewBox="0 0 1032 1024" version="1.1" xmlns="http://www.w3.org/2000/svg" p-id="9658" xmlns:xlink="http://www.w3.org/1999/xlink" width="48.375" height="48"><path d="M457.912592 229.739913c41.565176 1.739129 81.043398-19.304329 102.782508-54.782555s22.608673-80.173834 2.086954-116.521624C542.260335 22.261856 503.825591-0.172904 462.086501 0.001009c-62.434721 0.347826-113.21728 50.434733-114.43467 112.869454-1.043477 62.434721 47.82604 114.43467 110.260761 116.86945m-129.391176 459.477808s-137.912908-67.478194-193.043289-80.173834c-11.999988-2.782606-23.999976 4.347822-27.304321 16.173897C91.304258 687.478592 21.913022 916.869671 0.869564 992.869596c-1.913042 6.956515-0.521739 14.260856 3.826084 19.99998 4.347822 5.565212 11.130424 9.043469 18.260851 8.869557h40.347786c9.217382 0 17.391287-5.565212 21.043458-14.086943 23.130412-55.652119 91.130345-260.173657 101.217292-260.173657 77.217315-0.521739 142.086817 99.130337 139.652036 129.043351-3.130432 36.869529-24.347802 81.217311-40.695612 111.130326-3.826083 7.130428-3.65217 15.652158 0.347826 22.608673 3.999996 6.956515 11.47825 11.304337 19.652154 11.304337h46.086911c7.999992 0 15.478246-4.173909 19.652155-11.130424 41.565176-70.086887 55.478206-113.21728 55.652119-139.304211 0.347826-64.347763-62.434721-165.738967-97.391208-181.912864" p-id="9659" fill="#8a8a8a"></path><path d="M1027.998987 972.52179L835.477438 608.174323c-31.304317-54.086903-96.347731-15.826071-127.652048 38.260832l-83.478179 116.86945-44.173869-41.73909c0.869564-6.434776 0.869564-13.043465-0.347826-19.478241-14.260856-82.434701-77.217315-364.869206-123.304227-410.260466-1.565216-1.565216-3.130432-2.782606-5.217386-3.65217l-142.782468-75.6521c-7.304341-3.826083-15.478246-5.739125-23.65215-5.217386-49.739081 2.43478-163.130274 18.956503-199.478065 24.521715-7.304341 1.21739-13.565204 5.565212-17.043461 11.999988-11.652162 22.608673-45.043434 78.434705-63.304286 121.912924-7.304341 17.217374-3.478257 37.043442 9.913034 50.26082l24.695628 19.826067 85.217307 65.739066c7.652166 5.913038 10.782598 15.826071 7.999992 25.043454-7.652166 23.999976-0.869564 6.434776-3.826083 17.739113-2.956519 11.304337 3.478257 23.130412 14.434769 27.130408 39.130396 14.260856 143.652032 69.391236 183.999818 80.695572 11.304337 3.130432 9.391295-8.347818 13.739117-19.304328l-4.347822-5.913038L587.999421 819.130637l-100.173815 170.434614c-3.999996 7.130428-3.999996 15.826071 0 22.956499s11.652162 11.47825 19.826068 11.47825H998.259886c12.347814 0 23.652151-6.434776 29.739101-17.043461 6.260863-10.608685 6.260863-23.652151 0-34.434749zM206.782405 335.826765c-10.956511 20.347806-21.043458 43.826044-34.086923 77.565141-2.782606 7.130428-8.869556 12.347814-16.34781 14.086942-7.478254 1.565216-15.304333-0.521739-20.869545-5.739124l-45.565172-42.95648c-2.260867-1.913042 17.043461-43.652131 29.04345-65.739065 4.173909-7.652166 12.173901-12.347814 20.869544-11.999989l47.82604 1.391303c16.695636 0.173913 27.130408 18.434764 19.130416 33.391272z m157.738975 221.391086l30.608666-75.652099c7.999992-19.99998 36.695616-18.956503 43.130392 1.739128 16.521723 53.391252 39.652135 134.086824 64.347763 188.347641l-138.086821-114.43467z" p-id="9660" fill="#8a8a8a"></path></svg>