<svg width="40" height="40" viewBox="0 0 40 40" fill="none" xmlns="http://www.w3.org/2000/svg">
<rect width="40" height="40" fill="#1E1E1E"/>
<rect width="40" height="40" fill="url(#paint0_linear_4138_29300)"/>
<path d="M17.2 16.6648C17.2 16.1753 17.0992 15.7433 16.8977 15.369C16.7105 14.9947 16.4513 14.6851 16.1202 14.4404C15.789 14.1956 15.4075 14.0085 14.9756 13.8789C14.5437 13.7493 14.0901 13.6845 13.615 13.6845C13.1975 13.6845 12.8016 13.7421 12.4272 13.8573C12.0529 13.9581 11.7146 14.1092 11.4122 14.3108C11.1243 14.5124 10.8939 14.7643 10.7211 15.0667C10.5484 15.3546 10.462 15.693 10.462 16.0817V16.2113C10.462 16.6288 10.5484 16.9887 10.7211 17.2911C10.8939 17.579 11.1459 17.831 11.477 18.0469C11.8225 18.2485 12.2473 18.4213 12.7512 18.5653C13.2551 18.6948 13.8454 18.81 14.5221 18.9108C16.1058 19.1556 17.272 19.6235 18.0207 20.3146C18.7693 20.9912 19.1437 21.9055 19.1437 23.0573V23.3164C19.1437 23.9643 19.0285 24.5618 18.7981 25.1089C18.5822 25.6416 18.251 26.1023 17.8047 26.4911C17.3728 26.8798 16.8329 27.1822 16.185 27.3981C15.5371 27.6141 14.7884 27.7221 13.939 27.7221C12.9743 27.7221 12.1177 27.5853 11.369 27.3117C10.6347 27.0238 10.0156 26.6351 9.51174 26.1455C9.02222 25.6416 8.64789 25.0585 8.38873 24.3962C8.12958 23.7196 8 22.9853 8 22.1934V21.5455H9.81408V22.0638C9.81408 23.3884 10.174 24.3818 10.8939 25.0441C11.6282 25.7064 12.6432 26.0376 13.939 26.0376C15.062 26.0376 15.9042 25.7928 16.4657 25.3033C17.0416 24.7994 17.3296 24.1371 17.3296 23.3164V23.1869C17.3296 22.395 17.0344 21.7903 16.4441 21.3728C15.8682 20.9552 14.9252 20.6529 13.615 20.4657C12.852 20.3649 12.1609 20.2138 11.5418 20.0122C10.9371 19.7962 10.4188 19.5227 9.98685 19.1915C9.55493 18.846 9.22379 18.4357 8.99343 17.9606C8.76307 17.4854 8.64789 16.9239 8.64789 16.2761V16.0169C8.64789 15.4266 8.77027 14.8867 9.01502 14.3972C9.25978 13.9077 9.59812 13.4829 10.03 13.123C10.4764 12.7631 11.0019 12.4895 11.6066 12.3023C12.2257 12.1008 12.9023 12 13.6366 12C14.4861 12 15.2419 12.1224 15.9042 12.3671C16.5809 12.6119 17.1496 12.943 17.6103 13.3606C18.071 13.7637 18.4166 14.246 18.6469 14.8075C18.8917 15.3546 19.0141 15.9305 19.0141 16.5352V17.4423H17.2V16.6648Z" fill="white"/>
<path d="M23.3615 22.5822C23.4047 23.6476 23.7358 24.5042 24.3549 25.1521C24.974 25.8 25.8379 26.1239 26.9465 26.1239C27.4504 26.1239 27.8895 26.0663 28.2639 25.9512C28.6382 25.836 28.9549 25.6776 29.2141 25.4761C29.4876 25.2745 29.7036 25.0441 29.862 24.785C30.0347 24.5114 30.1715 24.2235 30.2723 23.9211L31.8704 24.353C31.5681 25.3465 31.0066 26.1599 30.1859 26.7934C29.3797 27.4125 28.2854 27.7221 26.9033 27.7221C26.1402 27.7221 25.4347 27.5925 24.7869 27.3333C24.1534 27.0598 23.6063 26.6782 23.1455 26.1887C22.6848 25.6992 22.3249 25.1161 22.0657 24.4394C21.8066 23.7628 21.677 23.0141 21.677 22.1934V21.6751C21.677 20.9264 21.8066 20.2282 22.0657 19.5803C22.3393 18.9324 22.7136 18.3781 23.1887 17.9174C23.6639 17.4423 24.2182 17.0751 24.8516 16.816C25.4995 16.5424 26.1978 16.4056 26.9465 16.4056C27.8247 16.4056 28.5806 16.5712 29.2141 16.9023C29.862 17.2191 30.3875 17.615 30.7906 18.0901C31.2081 18.5653 31.5105 19.0836 31.6977 19.6451C31.8992 20.2066 32 20.7249 32 21.2V22.5822H23.3615ZM26.9465 18.0038C26.4714 18.0038 26.025 18.0829 25.6075 18.2413C25.2044 18.3853 24.8444 18.5941 24.5277 18.8676C24.2254 19.1412 23.9734 19.4651 23.7718 19.8394C23.5847 20.1994 23.4623 20.5953 23.4047 21.0272H30.3155C30.2867 20.5665 30.1715 20.149 29.97 19.7746C29.7828 19.4003 29.5308 19.0836 29.2141 18.8244C28.9117 18.5653 28.559 18.3637 28.1559 18.2197C27.7671 18.0757 27.364 18.0038 26.9465 18.0038Z" fill="white"/>
<defs>
<linearGradient id="paint0_linear_4138_29300" x1="3.90144e-07" y1="40" x2="37.7245" y2="20.1877" gradientUnits="userSpaceOnUse">
<stop offset="0.0703" stop-color="#7F7FD5" stop-opacity="0.28"/>
<stop offset="0.5242" stop-color="#8AA8E7" stop-opacity="0.2"/>
<stop offset="0.9877" stop-color="#91EAE4" stop-opacity="0.27"/>
</linearGradient>
</defs>
</svg>
