<?xml version="1.0" standalone="no"?><!DOCTYPE svg PUBLIC "-//W3C//DTD SVG 1.1//EN" "http://www.w3.org/Graphics/SVG/1.1/DTD/svg11.dtd"><svg t="1696910911408" class="icon" viewBox="0 0 1024 1024" version="1.1" xmlns="http://www.w3.org/2000/svg" p-id="4033" width="24" height="24" xmlns:xlink="http://www.w3.org/1999/xlink"><path d="M694.856699 0c141.129042 0 255.999817 81.700513 255.999817 182.857012v511.999635c0 98.852501-109.129065 178.870729-246.271824 182.271869l121.709627 115.419346a18.175987 18.175987 0 0 1-12.580562 31.414835H210.285616a18.175987 18.175987 0 0 1-12.580562-31.414835l121.709627-115.419346C182.271922 873.690805 73.142857 793.709147 73.142857 694.856647V182.857012c0-101.156499 114.870775-182.857012 255.999817-182.857012h365.714025zM237.714168 749.71375C287.999847 749.71375 329.142674 708.570922 329.142674 658.285244s-41.142828-91.428506-91.428506-91.428506S146.285662 607.999566 146.285662 658.285244s41.142828 91.428506 91.428506 91.428506zM475.428284 438.856829V146.28561H164.571363v292.571219H475.428284z m310.856921 310.856921c50.285678 0 91.428506-41.142828 91.428506-91.428506s-41.142828-91.428506-91.428506-91.428506S694.856699 607.999566 694.856699 658.285244s41.142828 91.428506 91.428506 91.428506zM877.713711 438.856829V146.28561h-329.142622v292.571219h329.142622z" fill="#fff" p-id="4034"></path></svg>
