<?xml version="1.0" standalone="no"?><!DOCTYPE svg PUBLIC "-//W3C//DTD SVG 1.1//EN" "http://www.w3.org/Graphics/SVG/1.1/DTD/svg11.dtd"><svg t="1716780873563" class="icon" viewBox="0 0 1024 1024" version="1.1" xmlns="http://www.w3.org/2000/svg" p-id="4534" xmlns:xlink="http://www.w3.org/1999/xlink" width="48" height="48"><path d="M903.478 16.694H114.75a98.676 98.676 0 0 0-98.552 98.553v788.728a98.676 98.676 0 0 0 98.552 98.552h788.728a98.676 98.676 0 0 0 98.553-98.552V115.247a98.676 98.676 0 0 0-98.553-98.553zM377.08 635.19V372.767h278.776l-2.048 262.423H377.08z m276.263 62.06l-1.955 243.216H377.08V697.251h276.263zM78.258 372.768H315.02V635.19H78.258V372.767z m639.69 0H939.97V635.19h-224.1l2.078-262.423zM114.75 78.755h788.728c20.108 0 36.492 16.353 36.492 36.492v195.46H78.258v-195.46c0-20.14 16.384-36.492 36.492-36.492z m-36.492 825.22V697.25H315.02v243.215H114.75a36.554 36.554 0 0 1-36.492-36.491z m825.22 36.491h-190.03l1.956-243.215H939.97v206.724c0 20.107-16.353 36.491-36.492 36.491z" fill="#adb3c4" p-id="4535"></path></svg>
